<svg width="24" height="24" viewBox="0 0 24 24" fill="none" xmlns="http://www.w3.org/2000/svg">
<path fill-rule="evenodd" clip-rule="evenodd" d="M3.49999 13.787V13.568C3.53283 12.9188 3.74086 12.2905 4.10199 11.75C4.70264 11.1013 5.11539 10.3014 5.29599 9.436C5.29599 8.77 5.29599 8.094 5.35399 7.427C5.65399 4.218 8.82699 2 11.96 2H12.038C15.171 2 18.344 4.218 18.655 7.427C18.713 8.094 18.655 8.77 18.703 9.436C18.8858 10.3031 19.2978 11.1053 19.896 11.759C20.261 12.297 20.469 12.923 20.498 13.569V13.778C20.52 14.648 20.22 15.497 19.654 16.168C18.9 16.9547 17.8864 17.4414 16.801 17.538C13.606 17.881 10.382 17.881 7.18699 17.538C6.10278 17.4371 5.09062 16.9511 4.33399 16.168C3.77843 15.501 3.48229 14.6559 3.49999 13.788V13.787Z" stroke="#200E32" stroke-width="1.5" stroke-linecap="round" stroke-linejoin="round"/>
<path d="M9.55499 20.852C10.062 21.4797 10.7947 21.8841 11.5961 21.9785C12.3975 22.0728 13.204 21.8498 13.843 21.357C14.039 21.211 14.215 21.041 14.367 20.852" stroke="#200E32" stroke-width="1.5" stroke-linecap="round" stroke-linejoin="round"/>
</svg>
