<svg width="24" height="24" viewBox="0 0 24 24" fill="none" xmlns="http://www.w3.org/2000/svg">
<g clip-path="url(#clip0)">
<path d="M20.278 4.722L16.036 8.964" stroke="#191D43" stroke-width="1.5" stroke-miterlimit="10"/>
<path d="M20.278 20.278L16.036 16.036" stroke="#191D43" stroke-width="1.5" stroke-miterlimit="10"/>
<path d="M4.72202 20.278L8.96402 16.036" stroke="#191D43" stroke-width="1.5" stroke-miterlimit="10"/>
<path d="M4.72202 4.722L8.96402 8.964" stroke="#191D43" stroke-width="1.5" stroke-miterlimit="10"/>
<path d="M20.2779 20.2781C24.5736 15.9824 24.5736 9.01763 20.2779 4.7219C15.9822 0.426174 9.01743 0.426174 4.7217 4.7219C0.425977 9.01763 0.425977 15.9824 4.7217 20.2781C9.01743 24.5738 15.9822 24.5738 20.2779 20.2781Z" stroke="#191D43" stroke-width="1.5" stroke-miterlimit="10" stroke-linecap="square"/>
<path d="M16.0353 16.0355C17.9879 14.0829 17.9879 10.9171 16.0353 8.9645C14.0827 7.0119 10.9169 7.0119 8.9643 8.9645C7.0117 10.9171 7.0117 14.0829 8.9643 16.0355C10.9169 17.9881 14.0827 17.9881 16.0353 16.0355Z" stroke="#191D43" stroke-width="1.5" stroke-miterlimit="10" stroke-linecap="square"/>
</g>
<defs>
<clipPath id="clip0">
<rect width="24" height="24" fill="white"/>
</clipPath>
</defs>
</svg>
