<svg width="58" height="20" viewBox="0 0 58 20" fill="none" xmlns="http://www.w3.org/2000/svg">
<path d="M10.7542 19.7766H7.65363L7.1229 16.2291H3.35196L2.82123 19.7766H0L3.12849 0.223484H7.6257L10.7542 19.7766ZM3.74302 13.5754H6.70391L5.22346 3.68717L3.74302 13.5754Z" fill="#1A1D3C"/>
<path d="M12.1851 0.223484H17.0454C18.5911 0.223484 19.7363 0.633168 20.4812 1.45254C21.2447 2.2719 21.6264 3.47302 21.6264 5.05589V14.9442C21.6264 16.527 21.2447 17.7281 20.4812 18.5475C19.7363 19.3669 18.5911 19.7766 17.0454 19.7766H12.1851V0.223484ZM15.2577 3.01678V16.9833H16.9896C17.4737 16.9833 17.8555 16.8436 18.1348 16.5643C18.4142 16.2849 18.5538 15.7915 18.5538 15.0838V4.91622C18.5538 4.20859 18.4142 3.7151 18.1348 3.43577C17.8555 3.15645 17.4737 3.01678 16.9896 3.01678H15.2577Z" fill="#1A1D3C"/>
<path d="M23.6965 4.9162C23.6965 3.33333 24.0689 2.1229 24.8138 1.28491C25.5773 0.428305 26.7132 0 28.2216 0C29.73 0 30.8566 0.428305 31.6015 1.28491C32.365 2.1229 32.7467 3.33333 32.7467 4.9162V5.53072H29.8417V4.72067C29.8417 4.01303 29.7021 3.51955 29.4227 3.24022C29.162 2.94227 28.7896 2.79329 28.3054 2.79329C27.8212 2.79329 27.4395 2.94227 27.1602 3.24022C26.8994 3.51955 26.7691 4.01303 26.7691 4.72067C26.7691 5.39106 26.9181 5.98696 27.216 6.50838C27.514 7.01117 27.8864 7.49534 28.3333 7.96089C28.7803 8.40782 29.2551 8.86406 29.7579 9.32961C30.2793 9.77654 30.7635 10.27 31.2104 10.8101C31.6574 11.3501 32.0298 11.9646 32.3278 12.6536C32.6257 13.3426 32.7747 14.1527 32.7747 15.0838C32.7747 16.6667 32.3836 17.8864 31.6015 18.743C30.838 19.581 29.7021 20 28.1937 20C26.6853 20 25.54 19.581 24.7579 18.743C23.9944 17.8864 23.6127 16.6667 23.6127 15.0838V13.8827H26.5177V15.2793C26.5177 15.987 26.6574 16.4804 26.9367 16.7598C27.2346 17.0391 27.6257 17.1788 28.1099 17.1788C28.594 17.1788 28.9758 17.0391 29.2551 16.7598C29.5531 16.4804 29.7021 15.987 29.7021 15.2793C29.7021 14.6089 29.5531 14.0223 29.2551 13.5196C28.9572 12.9981 28.5847 12.514 28.1378 12.067C27.6909 11.6015 27.2067 11.1453 26.6853 10.6983C26.1825 10.2328 25.7076 9.72998 25.2607 9.18994C24.8138 8.64991 24.4413 8.03538 24.1434 7.34637C23.8454 6.65736 23.6965 5.8473 23.6965 4.9162Z" fill="#019D01"/>
<path d="M39.7485 11.9833L38.7988 13.771V19.7766H35.7262V0.223484H38.7988V8.74304L42.8212 0.223484H45.8938L41.6201 8.93857L45.8938 19.7766H42.7374L39.7485 11.9833Z" fill="#1A1D3C"/>
<path d="M50.1693 13.2961L46.2866 0.223484H49.4989L51.8453 9.1341L54.1916 0.223484H57.1246L53.2419 13.2961V19.7766H50.1693V13.2961Z" fill="#1A1D3C"/>
</svg>
